<svg xmlns="http://www.w3.org/2000/svg" viewBox="0 0 512 512" role="img" aria-labelledby="title desc">
  <title id="title">エイポン app mark</title>
  <desc id="desc">A rounded speech bubble with A, question mark, and notification badge.</desc>
  <defs>
    <linearGradient id="bg" x1="84" y1="36" x2="428" y2="476" gradientUnits="userSpaceOnUse">
      <stop offset="0" stop-color="#86eee7"/>
      <stop offset="1" stop-color="#38bdbb"/>
    </linearGradient>
    <linearGradient id="teal" x1="106" y1="109" x2="356" y2="382" gradientUnits="userSpaceOnUse">
      <stop offset="0" stop-color="#68ddd6"/>
      <stop offset="1" stop-color="#22a8a6"/>
    </linearGradient>
    <linearGradient id="sun" x1="314" y1="93" x2="417" y2="246" gradientUnits="userSpaceOnUse">
      <stop offset="0" stop-color="#ffd65f"/>
      <stop offset="1" stop-color="#ffae2b"/>
    </linearGradient>
    <filter id="shadow" x="-20%" y="-20%" width="140%" height="150%">
      <feDropShadow dx="0" dy="20" stdDeviation="22" flood-color="#126a73" flood-opacity=".24"/>
    </filter>
  </defs>
  <rect width="512" height="512" rx="118" fill="url(#bg)"/>
  <circle cx="86" cy="79" r="132" fill="#fff" opacity=".13"/>
  <circle cx="438" cy="447" r="146" fill="#fff" opacity=".12"/>
  <g filter="url(#shadow)">
    <path d="M122 120h212c42 0 68 26 68 68v76c0 42-26 68-68 68h-74l-58 51c-17 15-42 5-39-19l4-32h-45c-42 0-68-26-68-68v-76c0-42 26-68 68-68Z" fill="#fff"/>
    <path d="M122 120h212c42 0 68 26 68 68v76c0 42-26 68-68 68h-74l-58 51c-17 15-42 5-39-19l4-32h-45c-42 0-68-26-68-68v-76c0-42 26-68 68-68Z" fill="none" stroke="url(#teal)" stroke-width="24" stroke-linejoin="round"/>
    <path d="M142 270 199 163c6-11 22-11 28 0l57 107c9 17-4 36-23 36-11 0-20-6-24-15l-6-15h-65l-6 15c-4 9-13 15-24 15-19 0-32-19-23-36Zm37-33h35l-17-40-18 40Z" fill="url(#teal)"/>
    <path d="M300 234c0-14 5-25 14-33 7-7 17-12 27-17 10-6 15-11 15-20 0-12-10-20-25-20-13 0-25 6-36 16-10 9-24 8-33 0-10-10-9-25 2-35 17-18 42-28 72-28 43 0 72 25 72 61 0 27-14 42-37 55-16 9-23 15-25 28-1 13-11 21-23 21-13 0-23-10-23-28Zm-4 59c0-18 15-33 33-33s33 15 33 33-15 33-33 33-33-15-33-33Z" fill="url(#sun)"/>
    <circle cx="387" cy="101" r="49" fill="url(#sun)"/>
    <path d="M387 75v58" stroke="#fff" stroke-width="19" stroke-linecap="round"/>
    <path d="M363 101 387 75v58" stroke="#fff" stroke-width="19" stroke-linecap="round" stroke-linejoin="round"/>
    <path d="M425 56 446 35M445 101l31-8M352 48l5-29" stroke="#ffbd35" stroke-width="16" stroke-linecap="round"/>
  </g>
</svg>
