<svg xmlns="http://www.w3.org/2000/svg" viewBox="0 0 560 160" role="img" aria-labelledby="title desc">
  <title id="title">エイポン wordmark</title>
  <desc id="desc">Compact horizontal logo for the English habit app エイポン.</desc>
  <defs>
    <linearGradient id="teal" x1="18" y1="22" x2="168" y2="142" gradientUnits="userSpaceOnUse">
      <stop offset="0" stop-color="#6de0d8"/>
      <stop offset="1" stop-color="#27aaa8"/>
    </linearGradient>
    <linearGradient id="sun" x1="122" y1="25" x2="174" y2="96" gradientUnits="userSpaceOnUse">
      <stop offset="0" stop-color="#ffd65f"/>
      <stop offset="1" stop-color="#ffb42d"/>
    </linearGradient>
    <filter id="shadow" x="-20%" y="-20%" width="140%" height="150%">
      <feDropShadow dx="0" dy="8" stdDeviation="10" flood-color="#1d8084" flood-opacity=".14"/>
    </filter>
  </defs>
  <g filter="url(#shadow)">
    <path d="M39 28h87c25 0 40 15 40 40v29c0 25-15 40-40 40H94l-25 21c-10 9-23 3-21-10l2-11H39C15 137 0 122 0 97V68c0-25 15-40 39-40Z" fill="#fff"/>
    <path d="M39 28h87c25 0 40 15 40 40v29c0 25-15 40-40 40H94l-25 21c-10 9-23 3-21-10l2-11H39C15 137 0 122 0 97V68c0-25 15-40 39-40Z" fill="none" stroke="url(#teal)" stroke-width="11" stroke-linejoin="round"/>
    <path d="M49 97 75 49c3-6 12-6 15 0l26 48c4 8-2 16-11 16-5 0-9-3-11-7l-3-6H62l-3 6c-2 4-6 7-11 7-9 0-15-8-11-16Zm19-14h17l-8-18-9 18Z" fill="url(#teal)"/>
    <path d="M121 82c0-7 3-13 8-17 3-3 8-5 12-8 5-3 8-5 8-10 0-6-5-10-13-10-6 0-12 3-18 8-5 4-12 4-16 0-5-5-4-13 1-18 9-9 22-14 37-14 22 0 37 13 37 32 0 14-8 22-19 28-8 5-11 8-12 14-1 7-6 11-12 11-7 0-13-6-13-16Zm-2 30c0-10 8-18 18-18s18 8 18 18-8 18-18 18-18-8-18-18Z" fill="url(#sun)"/>
    <circle cx="166" cy="28" r="22" fill="url(#sun)"/>
    <path d="M166 15v26" stroke="#fff" stroke-width="9" stroke-linecap="round"/>
    <path d="M155 27 166 15v26" stroke="#fff" stroke-width="9" stroke-linecap="round" stroke-linejoin="round"/>
  </g>
  <text x="205" y="103" font-family="Hiragino Sans, Yu Gothic, Meiryo, Noto Sans JP, sans-serif" font-size="78" font-weight="800" letter-spacing="2" fill="#173b42">エイ<tspan fill="#ffb42d">ポ</tspan>ン</text>
</svg>
