<svg xmlns="http://www.w3.org/2000/svg" viewBox="0 0 820 260" role="img" aria-labelledby="title desc">
  <title id="title">エイポン logo</title>
  <desc id="desc">A friendly speech bubble logo for the English habit app エイポン.</desc>
  <defs>
    <linearGradient id="teal" x1="42" y1="36" x2="306" y2="226" gradientUnits="userSpaceOnUse">
      <stop offset="0" stop-color="#6de0d8"/>
      <stop offset="1" stop-color="#27aaa8"/>
    </linearGradient>
    <linearGradient id="sun" x1="208" y1="46" x2="300" y2="154" gradientUnits="userSpaceOnUse">
      <stop offset="0" stop-color="#ffd65f"/>
      <stop offset="1" stop-color="#ffb42d"/>
    </linearGradient>
    <filter id="softShadow" x="-20%" y="-20%" width="140%" height="150%">
      <feDropShadow dx="0" dy="16" stdDeviation="18" flood-color="#1d8084" flood-opacity=".18"/>
    </filter>
  </defs>

  <g filter="url(#softShadow)">
    <path d="M62 39h150c35 0 56 21 56 55v57c0 34-21 55-56 55h-54l-42 37c-14 13-34 4-32-15l3-22H62c-35 0-56-21-56-55V94c0-34 21-55 56-55Z" fill="#fff"/>
    <path d="M62 39h150c35 0 56 21 56 55v57c0 34-21 55-56 55h-54l-42 37c-14 13-34 4-32-15l3-22H62c-35 0-56-21-56-55V94c0-34 21-55 56-55Z" fill="none" stroke="url(#teal)" stroke-width="18" stroke-linejoin="round"/>
    <path d="M87 157 128 80c4-8 15-8 19 0l41 77c6 12-3 26-17 26-8 0-14-4-17-11l-4-10h-47l-4 10c-3 7-10 11-18 11-14 0-23-14-17-26Zm27-23h25l-12-28-13 28Z" fill="url(#teal)"/>
    <path d="M207 134c0-10 3-18 10-24 5-5 12-8 19-12 7-4 11-8 11-14 0-8-7-14-18-14-9 0-17 4-25 11-7 6-17 6-23 0-7-7-6-18 1-25 12-12 29-19 50-19 30 0 50 18 50 43 0 19-10 29-26 38-11 6-16 10-17 19-1 9-8 15-16 15-9 0-16-7-16-18Zm-3 42c0-13 10-23 23-23s23 10 23 23-10 23-23 23-23-10-23-23Z" fill="url(#sun)"/>
    <circle cx="270" cy="52" r="34" fill="url(#sun)"/>
    <path d="M270 32v40" stroke="#fff" stroke-width="13" stroke-linecap="round"/>
    <path d="M253 49 270 32v40" stroke="#fff" stroke-width="13" stroke-linecap="round" stroke-linejoin="round"/>
    <path d="M295 21 308 7M312 50l20-6M246 15l3-19" stroke="#ffba36" stroke-width="11" stroke-linecap="round"/>
    <path d="M295 153h18M314 171l14 12" stroke="url(#teal)" stroke-width="11" stroke-linecap="round"/>
  </g>

  <g transform="translate(338 73)">
    <text x="0" y="82" font-family="Hiragino Sans, Yu Gothic, Meiryo, Noto Sans JP, sans-serif" font-size="86" font-weight="800" letter-spacing="3" fill="#173b42">エイ<tspan fill="#ffb42d">ポ</tspan>ン</text>
    <path d="M31 123c58 31 175 31 233 0" fill="none" stroke="#ffbd35" stroke-width="12" stroke-linecap="round"/>
    <text x="4" y="166" font-family="Hiragino Sans, Yu Gothic, Meiryo, Noto Sans JP, sans-serif" font-size="24" font-weight="700" letter-spacing="1" fill="#668185">ポンと出る、英語の習慣</text>
  </g>
</svg>
