<svg xmlns="http://www.w3.org/2000/svg" viewBox="0 0 1200 600"><g fill="#177e74" fill-opacity="0.28"><circle cx="54.0" cy="78.0" r="2.7"/><circle cx="66.0" cy="78.0" r="2.7"/><circle cx="66.0" cy="90.0" r="2.7"/><circle cx="78.0" cy="78.0" r="2.7"/><circle cx="78.0" cy="90.0" r="2.7"/><circle cx="90.0" cy="78.0" r="2.7"/><circle cx="90.0" cy="90.0" r="2.7"/><circle cx="102.0" cy="78.0" r="2.7"/><circle cx="102.0" cy="90.0" r="2.7"/><circle cx="102.0" cy="102.0" r="2.7"/><circle cx="114.0" cy="66.0" r="2.7"/><circle cx="114.0" cy="78.0" r="2.7"/><circle cx="114.0" cy="90.0" r="2.7"/><circle cx="126.0" cy="66.0" r="2.7"/><circle cx="126.0" cy="78.0" r="2.7"/><circle cx="126.0" cy="90.0" r="2.7"/><circle cx="138.0" cy="66.0" r="2.7"/><circle cx="138.0" cy="78.0" r="2.7"/><circle cx="138.0" cy="90.0" r="2.7"/><circle cx="138.0" cy="102.0" r="2.7"/><circle cx="150.0" cy="66.0" r="2.7"/><circle cx="150.0" cy="78.0" r="2.7"/><circle cx="150.0" cy="90.0" r="2.7"/><circle cx="150.0" cy="102.0" r="2.7"/><circle cx="162.0" cy="66.0" r="2.7"/><circle cx="162.0" cy="78.0" r="2.7"/><circle cx="162.0" cy="90.0" r="2.7"/><circle cx="162.0" cy="102.0" r="2.7"/><circle cx="162.0" cy="114.0" r="2.7"/><circle cx="174.0" cy="66.0" r="2.7"/><circle cx="174.0" cy="78.0" r="2.7"/><circle cx="174.0" cy="90.0" r="2.7"/><circle cx="174.0" cy="102.0" r="2.7"/><circle cx="174.0" cy="114.0" r="2.7"/><circle cx="174.0" cy="126.0" r="2.7"/><circle cx="186.0" cy="66.0" r="2.7"/><circle cx="186.0" cy="78.0" r="2.7"/><circle cx="186.0" cy="90.0" r="2.7"/><circle cx="186.0" cy="102.0" r="2.7"/><circle cx="186.0" cy="114.0" r="2.7"/><circle cx="186.0" cy="126.0" r="2.7"/><circle cx="186.0" cy="138.0" r="2.7"/><circle cx="186.0" cy="150.0" r="2.7"/><circle cx="198.0" cy="66.0" r="2.7"/><circle cx="198.0" cy="78.0" r="2.7"/><circle cx="198.0" cy="90.0" r="2.7"/><circle cx="198.0" cy="102.0" r="2.7"/><circle cx="198.0" cy="114.0" r="2.7"/><circle cx="198.0" cy="126.0" r="2.7"/><circle cx="198.0" cy="138.0" r="2.7"/><circle cx="198.0" cy="150.0" r="2.7"/><circle cx="198.0" cy="162.0" r="2.7"/><circle cx="198.0" cy="174.0" r="2.7"/><circle cx="210.0" cy="66.0" r="2.7"/><circle cx="210.0" cy="78.0" r="2.7"/><circle cx="210.0" cy="90.0" r="2.7"/><circle cx="210.0" cy="102.0" r="2.7"/><circle cx="210.0" cy="114.0" r="2.7"/><circle cx="210.0" cy="126.0" r="2.7"/><circle cx="210.0" cy="138.0" r="2.7"/><circle cx="210.0" cy="150.0" r="2.7"/><circle cx="210.0" cy="162.0" r="2.7"/><circle cx="210.0" cy="174.0" r="2.7"/><circle cx="210.0" cy="186.0" r="2.7"/><circle cx="222.0" cy="66.0" r="2.7"/><circle cx="222.0" cy="78.0" r="2.7"/><circle cx="222.0" cy="90.0" r="2.7"/><circle cx="222.0" cy="102.0" r="2.7"/><circle cx="222.0" cy="114.0" r="2.7"/><circle cx="222.0" cy="126.0" r="2.7"/><circle cx="222.0" cy="138.0" r="2.7"/><circle cx="222.0" cy="150.0" r="2.7"/><circle cx="222.0" cy="162.0" r="2.7"/><circle cx="222.0" cy="174.0" r="2.7"/><circle cx="222.0" cy="186.0" r="2.7"/><circle cx="222.0" cy="198.0" r="2.7"/><circle cx="234.0" cy="78.0" r="2.7"/><circle cx="234.0" cy="90.0" r="2.7"/><circle cx="234.0" cy="102.0" r="2.7"/><circle cx="234.0" cy="114.0" r="2.7"/><circle cx="234.0" cy="126.0" r="2.7"/><circle cx="234.0" cy="138.0" r="2.7"/><circle cx="234.0" cy="150.0" r="2.7"/><circle cx="234.0" cy="162.0" r="2.7"/><circle cx="234.0" cy="174.0" r="2.7"/><circle cx="234.0" cy="186.0" r="2.7"/><circle cx="234.0" cy="198.0" r="2.7"/><circle cx="234.0" cy="210.0" r="2.7"/><circle cx="234.0" cy="222.0" r="2.7"/><circle cx="246.0" cy="78.0" r="2.7"/><circle cx="246.0" cy="90.0" r="2.7"/><circle cx="246.0" cy="102.0" r="2.7"/><circle cx="246.0" cy="114.0" r="2.7"/><circle cx="246.0" cy="126.0" r="2.7"/><circle cx="246.0" cy="138.0" r="2.7"/><circle cx="246.0" cy="150.0" r="2.7"/><circle cx="246.0" cy="162.0" r="2.7"/><circle cx="246.0" cy="174.0" r="2.7"/><circle cx="246.0" cy="186.0" r="2.7"/><circle cx="246.0" cy="198.0" r="2.7"/><circle cx="246.0" cy="210.0" r="2.7"/><circle cx="246.0" cy="222.0" r="2.7"/><circle cx="258.0" cy="78.0" r="2.7"/><circle cx="258.0" cy="90.0" r="2.7"/><circle cx="258.0" cy="102.0" r="2.7"/><circle cx="258.0" cy="114.0" r="2.7"/><circle cx="258.0" cy="126.0" r="2.7"/><circle cx="258.0" cy="138.0" r="2.7"/><circle cx="258.0" cy="150.0" r="2.7"/><circle cx="258.0" cy="162.0" r="2.7"/><circle cx="258.0" cy="174.0" r="2.7"/><circle cx="258.0" cy="186.0" r="2.7"/><circle cx="258.0" cy="198.0" r="2.7"/><circle cx="258.0" cy="210.0" r="2.7"/><circle cx="258.0" cy="222.0" r="2.7"/><circle cx="258.0" cy="234.0" r="2.7"/><circle cx="270.0" cy="78.0" r="2.7"/><circle cx="270.0" cy="90.0" r="2.7"/><circle cx="270.0" cy="102.0" r="2.7"/><circle cx="270.0" cy="114.0" r="2.7"/><circle cx="270.0" cy="126.0" r="2.7"/><circle cx="270.0" cy="138.0" r="2.7"/><circle cx="270.0" cy="150.0" r="2.7"/><circle cx="270.0" cy="162.0" r="2.7"/><circle cx="270.0" cy="174.0" r="2.7"/><circle cx="270.0" cy="186.0" r="2.7"/><circle cx="270.0" cy="198.0" r="2.7"/><circle cx="270.0" cy="210.0" r="2.7"/><circle cx="270.0" cy="222.0" r="2.7"/><circle cx="270.0" cy="234.0" r="2.7"/><circle cx="270.0" cy="246.0" r="2.7"/><circle cx="282.0" cy="90.0" r="2.7"/><circle cx="282.0" cy="102.0" r="2.7"/><circle cx="282.0" cy="114.0" r="2.7"/><circle cx="282.0" cy="126.0" r="2.7"/><circle cx="282.0" cy="138.0" r="2.7"/><circle cx="282.0" cy="150.0" r="2.7"/><circle cx="282.0" cy="162.0" r="2.7"/><circle cx="282.0" cy="174.0" r="2.7"/><circle cx="282.0" cy="186.0" r="2.7"/><circle cx="282.0" cy="198.0" r="2.7"/><circle cx="282.0" cy="210.0" r="2.7"/><circle cx="282.0" cy="222.0" r="2.7"/><circle cx="282.0" cy="234.0" r="2.7"/><circle cx="282.0" cy="246.0" r="2.7"/><circle cx="294.0" cy="90.0" r="2.7"/><circle cx="294.0" cy="102.0" r="2.7"/><circle cx="294.0" cy="114.0" r="2.7"/><circle cx="294.0" cy="126.0" r="2.7"/><circle cx="294.0" cy="138.0" r="2.7"/><circle cx="294.0" cy="150.0" r="2.7"/><circle cx="294.0" cy="162.0" r="2.7"/><circle cx="294.0" cy="174.0" r="2.7"/><circle cx="294.0" cy="186.0" r="2.7"/><circle cx="294.0" cy="198.0" r="2.7"/><circle cx="294.0" cy="210.0" r="2.7"/><circle cx="294.0" cy="222.0" r="2.7"/><circle cx="294.0" cy="234.0" r="2.7"/><circle cx="306.0" cy="102.0" r="2.7"/><circle cx="306.0" cy="114.0" r="2.7"/><circle cx="306.0" cy="126.0" r="2.7"/><circle cx="306.0" cy="138.0" r="2.7"/><circle cx="306.0" cy="150.0" r="2.7"/><circle cx="306.0" cy="162.0" r="2.7"/><circle cx="306.0" cy="174.0" r="2.7"/><circle cx="306.0" cy="186.0" r="2.7"/><circle cx="306.0" cy="198.0" r="2.7"/><circle cx="306.0" cy="210.0" r="2.7"/><circle cx="306.0" cy="222.0" r="2.7"/><circle cx="318.0" cy="102.0" r="2.7"/><circle cx="318.0" cy="114.0" r="2.7"/><circle cx="318.0" cy="126.0" r="2.7"/><circle cx="318.0" cy="138.0" r="2.7"/><circle cx="318.0" cy="150.0" r="2.7"/><circle cx="318.0" cy="162.0" r="2.7"/><circle cx="318.0" cy="174.0" r="2.7"/><circle cx="318.0" cy="186.0" r="2.7"/><circle cx="318.0" cy="198.0" r="2.7"/><circle cx="318.0" cy="210.0" r="2.7"/><circle cx="318.0" cy="222.0" r="2.7"/><circle cx="330.0" cy="114.0" r="2.7"/><circle cx="330.0" cy="126.0" r="2.7"/><circle cx="330.0" cy="138.0" r="2.7"/><circle cx="330.0" cy="150.0" r="2.7"/><circle cx="330.0" cy="162.0" r="2.7"/><circle cx="330.0" cy="174.0" r="2.7"/><circle cx="330.0" cy="186.0" r="2.7"/><circle cx="330.0" cy="198.0" r="2.7"/><circle cx="330.0" cy="210.0" r="2.7"/><circle cx="330.0" cy="294.0" r="2.7"/><circle cx="342.0" cy="138.0" r="2.7"/><circle cx="342.0" cy="150.0" r="2.7"/><circle cx="342.0" cy="162.0" r="2.7"/><circle cx="342.0" cy="174.0" r="2.7"/><circle cx="342.0" cy="186.0" r="2.7"/><circle cx="342.0" cy="282.0" r="2.7"/><circle cx="342.0" cy="294.0" r="2.7"/><circle cx="342.0" cy="306.0" r="2.7"/><circle cx="342.0" cy="318.0" r="2.7"/><circle cx="342.0" cy="330.0" r="2.7"/><circle cx="354.0" cy="138.0" r="2.7"/><circle cx="354.0" cy="150.0" r="2.7"/><circle cx="354.0" cy="162.0" r="2.7"/><circle cx="354.0" cy="270.0" r="2.7"/><circle cx="354.0" cy="282.0" r="2.7"/><circle cx="354.0" cy="294.0" r="2.7"/><circle cx="354.0" cy="306.0" r="2.7"/><circle cx="354.0" cy="318.0" r="2.7"/><circle cx="354.0" cy="330.0" r="2.7"/><circle cx="354.0" cy="342.0" r="2.7"/><circle cx="366.0" cy="138.0" r="2.7"/><circle cx="366.0" cy="150.0" r="2.7"/><circle cx="366.0" cy="162.0" r="2.7"/><circle cx="366.0" cy="270.0" r="2.7"/><circle cx="366.0" cy="282.0" r="2.7"/><circle cx="366.0" cy="294.0" r="2.7"/><circle cx="366.0" cy="306.0" r="2.7"/><circle cx="366.0" cy="318.0" r="2.7"/><circle cx="366.0" cy="330.0" r="2.7"/><circle cx="366.0" cy="342.0" r="2.7"/><circle cx="366.0" cy="366.0" r="2.7"/><circle cx="366.0" cy="378.0" r="2.7"/><circle cx="366.0" cy="390.0" r="2.7"/><circle cx="366.0" cy="402.0" r="2.7"/><circle cx="366.0" cy="414.0" r="2.7"/><circle cx="366.0" cy="426.0" r="2.7"/><circle cx="366.0" cy="438.0" r="2.7"/><circle cx="366.0" cy="450.0" r="2.7"/><circle cx="378.0" cy="138.0" r="2.7"/><circle cx="378.0" cy="150.0" r="2.7"/><circle cx="378.0" cy="270.0" r="2.7"/><circle cx="378.0" cy="282.0" r="2.7"/><circle cx="378.0" cy="294.0" r="2.7"/><circle cx="378.0" cy="306.0" r="2.7"/><circle cx="378.0" cy="318.0" r="2.7"/><circle cx="378.0" cy="330.0" r="2.7"/><circle cx="378.0" cy="342.0" r="2.7"/><circle cx="378.0" cy="354.0" r="2.7"/><circle cx="378.0" cy="366.0" r="2.7"/><circle cx="378.0" cy="378.0" r="2.7"/><circle cx="378.0" cy="390.0" r="2.7"/><circle cx="378.0" cy="402.0" r="2.7"/><circle cx="378.0" cy="414.0" r="2.7"/><circle cx="378.0" cy="426.0" r="2.7"/><circle cx="378.0" cy="438.0" r="2.7"/><circle cx="390.0" cy="138.0" r="2.7"/><circle cx="390.0" cy="270.0" r="2.7"/><circle cx="390.0" cy="282.0" r="2.7"/><circle cx="390.0" cy="294.0" r="2.7"/><circle cx="390.0" cy="306.0" r="2.7"/><circle cx="390.0" cy="318.0" r="2.7"/><circle cx="390.0" cy="330.0" r="2.7"/><circle cx="390.0" cy="342.0" r="2.7"/><circle cx="390.0" cy="354.0" r="2.7"/><circle cx="390.0" cy="366.0" r="2.7"/><circle cx="390.0" cy="378.0" r="2.7"/><circle cx="390.0" cy="390.0" r="2.7"/><circle cx="390.0" cy="402.0" r="2.7"/><circle cx="390.0" cy="414.0" r="2.7"/><circle cx="390.0" cy="426.0" r="2.7"/><circle cx="402.0" cy="270.0" r="2.7"/><circle cx="402.0" cy="282.0" r="2.7"/><circle cx="402.0" cy="294.0" r="2.7"/><circle cx="402.0" cy="306.0" r="2.7"/><circle cx="402.0" cy="318.0" r="2.7"/><circle cx="402.0" cy="330.0" r="2.7"/><circle cx="402.0" cy="342.0" r="2.7"/><circle cx="402.0" cy="354.0" r="2.7"/><circle cx="402.0" cy="366.0" r="2.7"/><circle cx="402.0" cy="378.0" r="2.7"/><circle cx="402.0" cy="390.0" r="2.7"/><circle cx="402.0" cy="402.0" r="2.7"/><circle cx="402.0" cy="414.0" r="2.7"/><circle cx="414.0" cy="282.0" r="2.7"/><circle cx="414.0" cy="294.0" r="2.7"/><circle cx="414.0" cy="306.0" r="2.7"/><circle cx="414.0" cy="318.0" r="2.7"/><circle cx="414.0" cy="330.0" r="2.7"/><circle cx="414.0" cy="342.0" r="2.7"/><circle cx="414.0" cy="354.0" r="2.7"/><circle cx="414.0" cy="366.0" r="2.7"/><circle cx="414.0" cy="378.0" r="2.7"/><circle cx="414.0" cy="390.0" r="2.7"/><circle cx="414.0" cy="402.0" r="2.7"/><circle cx="414.0" cy="414.0" r="2.7"/><circle cx="426.0" cy="282.0" r="2.7"/><circle cx="426.0" cy="294.0" r="2.7"/><circle cx="426.0" cy="306.0" r="2.7"/><circle cx="426.0" cy="318.0" r="2.7"/><circle cx="426.0" cy="330.0" r="2.7"/><circle cx="426.0" cy="342.0" r="2.7"/><circle cx="426.0" cy="354.0" r="2.7"/><circle cx="426.0" cy="366.0" r="2.7"/><circle cx="426.0" cy="378.0" r="2.7"/><circle cx="426.0" cy="390.0" r="2.7"/><circle cx="438.0" cy="294.0" r="2.7"/><circle cx="438.0" cy="306.0" r="2.7"/><circle cx="438.0" cy="318.0" r="2.7"/><circle cx="438.0" cy="330.0" r="2.7"/><circle cx="438.0" cy="342.0" r="2.7"/><circle cx="438.0" cy="354.0" r="2.7"/><circle cx="438.0" cy="366.0" r="2.7"/><circle cx="438.0" cy="378.0" r="2.7"/><circle cx="450.0" cy="306.0" r="2.7"/><circle cx="450.0" cy="318.0" r="2.7"/><circle cx="450.0" cy="330.0" r="2.7"/><circle cx="450.0" cy="342.0" r="2.7"/><circle cx="450.0" cy="354.0" r="2.7"/><circle cx="450.0" cy="366.0" r="2.7"/><circle cx="462.0" cy="330.0" r="2.7"/><circle cx="462.0" cy="342.0" r="2.7"/><circle cx="462.0" cy="354.0" r="2.7"/><circle cx="462.0" cy="366.0" r="2.7"/><circle cx="558.0" cy="234.0" r="2.7"/><circle cx="558.0" cy="246.0" r="2.7"/><circle cx="558.0" cy="258.0" r="2.7"/><circle cx="570.0" cy="162.0" r="2.7"/><circle cx="570.0" cy="210.0" r="2.7"/><circle cx="570.0" cy="222.0" r="2.7"/><circle cx="570.0" cy="234.0" r="2.7"/><circle cx="570.0" cy="246.0" r="2.7"/><circle cx="570.0" cy="258.0" r="2.7"/><circle cx="570.0" cy="270.0" r="2.7"/><circle cx="582.0" cy="126.0" r="2.7"/><circle cx="582.0" cy="162.0" r="2.7"/><circle cx="582.0" cy="198.0" r="2.7"/><circle cx="582.0" cy="210.0" r="2.7"/><circle cx="582.0" cy="222.0" r="2.7"/><circle cx="582.0" cy="234.0" r="2.7"/><circle cx="582.0" cy="246.0" r="2.7"/><circle cx="582.0" cy="258.0" r="2.7"/><circle cx="582.0" cy="270.0" r="2.7"/><circle cx="582.0" cy="282.0" r="2.7"/><circle cx="594.0" cy="138.0" r="2.7"/><circle cx="594.0" cy="162.0" r="2.7"/><circle cx="594.0" cy="198.0" r="2.7"/><circle cx="594.0" cy="210.0" r="2.7"/><circle cx="594.0" cy="222.0" r="2.7"/><circle cx="594.0" cy="234.0" r="2.7"/><circle cx="594.0" cy="246.0" r="2.7"/><circle cx="594.0" cy="258.0" r="2.7"/><circle cx="594.0" cy="270.0" r="2.7"/><circle cx="594.0" cy="282.0" r="2.7"/><circle cx="606.0" cy="114.0" r="2.7"/><circle cx="606.0" cy="126.0" r="2.7"/><circle cx="606.0" cy="138.0" r="2.7"/><circle cx="606.0" cy="150.0" r="2.7"/><circle cx="606.0" cy="162.0" r="2.7"/><circle cx="606.0" cy="186.0" r="2.7"/><circle cx="606.0" cy="198.0" r="2.7"/><circle cx="606.0" cy="210.0" r="2.7"/><circle cx="606.0" cy="222.0" r="2.7"/><circle cx="606.0" cy="234.0" r="2.7"/><circle cx="606.0" cy="246.0" r="2.7"/><circle cx="606.0" cy="258.0" r="2.7"/><circle cx="606.0" cy="270.0" r="2.7"/><circle cx="606.0" cy="282.0" r="2.7"/><circle cx="618.0" cy="114.0" r="2.7"/><circle cx="618.0" cy="126.0" r="2.7"/><circle cx="618.0" cy="138.0" r="2.7"/><circle cx="618.0" cy="150.0" r="2.7"/><circle cx="618.0" cy="162.0" r="2.7"/><circle cx="618.0" cy="186.0" r="2.7"/><circle cx="618.0" cy="198.0" r="2.7"/><circle cx="618.0" cy="210.0" r="2.7"/><circle cx="618.0" cy="222.0" r="2.7"/><circle cx="618.0" cy="234.0" r="2.7"/><circle cx="618.0" cy="246.0" r="2.7"/><circle cx="618.0" cy="258.0" r="2.7"/><circle cx="618.0" cy="270.0" r="2.7"/><circle cx="618.0" cy="282.0" r="2.7"/><circle cx="630.0" cy="90.0" r="2.7"/><circle cx="630.0" cy="102.0" r="2.7"/><circle cx="630.0" cy="114.0" r="2.7"/><circle cx="630.0" cy="126.0" r="2.7"/><circle cx="630.0" cy="138.0" r="2.7"/><circle cx="630.0" cy="150.0" r="2.7"/><circle cx="630.0" cy="162.0" r="2.7"/><circle cx="630.0" cy="186.0" r="2.7"/><circle cx="630.0" cy="198.0" r="2.7"/><circle cx="630.0" cy="210.0" r="2.7"/><circle cx="630.0" cy="222.0" r="2.7"/><circle cx="630.0" cy="234.0" r="2.7"/><circle cx="630.0" cy="246.0" r="2.7"/><circle cx="630.0" cy="258.0" r="2.7"/><circle cx="630.0" cy="270.0" r="2.7"/><circle cx="630.0" cy="282.0" r="2.7"/><circle cx="630.0" cy="294.0" r="2.7"/><circle cx="630.0" cy="306.0" r="2.7"/><circle cx="630.0" cy="318.0" r="2.7"/><circle cx="630.0" cy="330.0" r="2.7"/><circle cx="642.0" cy="90.0" r="2.7"/><circle cx="642.0" cy="102.0" r="2.7"/><circle cx="642.0" cy="114.0" r="2.7"/><circle cx="642.0" cy="126.0" r="2.7"/><circle cx="642.0" cy="138.0" r="2.7"/><circle cx="642.0" cy="150.0" r="2.7"/><circle cx="642.0" cy="162.0" r="2.7"/><circle cx="642.0" cy="198.0" r="2.7"/><circle cx="642.0" cy="210.0" r="2.7"/><circle cx="642.0" cy="222.0" r="2.7"/><circle cx="642.0" cy="234.0" r="2.7"/><circle cx="642.0" cy="246.0" r="2.7"/><circle cx="642.0" cy="258.0" r="2.7"/><circle cx="642.0" cy="270.0" r="2.7"/><circle cx="642.0" cy="282.0" r="2.7"/><circle cx="642.0" cy="294.0" r="2.7"/><circle cx="642.0" cy="306.0" r="2.7"/><circle cx="642.0" cy="318.0" r="2.7"/><circle cx="642.0" cy="330.0" r="2.7"/><circle cx="642.0" cy="342.0" r="2.7"/><circle cx="642.0" cy="354.0" r="2.7"/><circle cx="642.0" cy="366.0" r="2.7"/><circle cx="654.0" cy="78.0" r="2.7"/><circle cx="654.0" cy="90.0" r="2.7"/><circle cx="654.0" cy="102.0" r="2.7"/><circle cx="654.0" cy="114.0" r="2.7"/><circle cx="654.0" cy="126.0" r="2.7"/><circle cx="654.0" cy="138.0" r="2.7"/><circle cx="654.0" cy="150.0" r="2.7"/><circle cx="654.0" cy="162.0" r="2.7"/><circle cx="654.0" cy="198.0" r="2.7"/><circle cx="654.0" cy="210.0" r="2.7"/><circle cx="654.0" cy="222.0" r="2.7"/><circle cx="654.0" cy="234.0" r="2.7"/><circle cx="654.0" cy="246.0" r="2.7"/><circle cx="654.0" cy="258.0" r="2.7"/><circle cx="654.0" cy="270.0" r="2.7"/><circle cx="654.0" cy="282.0" r="2.7"/><circle cx="654.0" cy="294.0" r="2.7"/><circle cx="654.0" cy="306.0" r="2.7"/><circle cx="654.0" cy="318.0" r="2.7"/><circle cx="654.0" cy="330.0" r="2.7"/><circle cx="654.0" cy="342.0" r="2.7"/><circle cx="654.0" cy="354.0" r="2.7"/><circle cx="654.0" cy="366.0" r="2.7"/><circle cx="654.0" cy="378.0" r="2.7"/><circle cx="654.0" cy="390.0" r="2.7"/><circle cx="654.0" cy="402.0" r="2.7"/><circle cx="666.0" cy="78.0" r="2.7"/><circle cx="666.0" cy="90.0" r="2.7"/><circle cx="666.0" cy="102.0" r="2.7"/><circle cx="666.0" cy="114.0" r="2.7"/><circle cx="666.0" cy="126.0" r="2.7"/><circle cx="666.0" cy="138.0" r="2.7"/><circle cx="666.0" cy="150.0" r="2.7"/><circle cx="666.0" cy="162.0" r="2.7"/><circle cx="666.0" cy="198.0" r="2.7"/><circle cx="666.0" cy="210.0" r="2.7"/><circle cx="666.0" cy="222.0" r="2.7"/><circle cx="666.0" cy="234.0" r="2.7"/><circle cx="666.0" cy="246.0" r="2.7"/><circle cx="666.0" cy="258.0" r="2.7"/><circle cx="666.0" cy="270.0" r="2.7"/><circle cx="666.0" cy="282.0" r="2.7"/><circle cx="666.0" cy="294.0" r="2.7"/><circle cx="666.0" cy="306.0" r="2.7"/><circle cx="666.0" cy="318.0" r="2.7"/><circle cx="666.0" cy="330.0" r="2.7"/><circle cx="666.0" cy="342.0" r="2.7"/><circle cx="666.0" cy="354.0" r="2.7"/><circle cx="666.0" cy="366.0" r="2.7"/><circle cx="666.0" cy="378.0" r="2.7"/><circle cx="666.0" cy="390.0" r="2.7"/><circle cx="666.0" cy="402.0" r="2.7"/><circle cx="666.0" cy="414.0" r="2.7"/><circle cx="678.0" cy="78.0" r="2.7"/><circle cx="678.0" cy="90.0" r="2.7"/><circle cx="678.0" cy="102.0" r="2.7"/><circle cx="678.0" cy="114.0" r="2.7"/><circle cx="678.0" cy="126.0" r="2.7"/><circle cx="678.0" cy="138.0" r="2.7"/><circle cx="678.0" cy="150.0" r="2.7"/><circle cx="678.0" cy="162.0" r="2.7"/><circle cx="678.0" cy="198.0" r="2.7"/><circle cx="678.0" cy="210.0" r="2.7"/><circle cx="678.0" cy="222.0" r="2.7"/><circle cx="678.0" cy="234.0" r="2.7"/><circle cx="678.0" cy="246.0" r="2.7"/><circle cx="678.0" cy="258.0" r="2.7"/><circle cx="678.0" cy="270.0" r="2.7"/><circle cx="678.0" cy="282.0" r="2.7"/><circle cx="678.0" cy="294.0" r="2.7"/><circle cx="678.0" cy="306.0" r="2.7"/><circle cx="678.0" cy="318.0" r="2.7"/><circle cx="678.0" cy="330.0" r="2.7"/><circle cx="678.0" cy="342.0" r="2.7"/><circle cx="678.0" cy="354.0" r="2.7"/><circle cx="678.0" cy="366.0" r="2.7"/><circle cx="678.0" cy="378.0" r="2.7"/><circle cx="678.0" cy="390.0" r="2.7"/><circle cx="678.0" cy="402.0" r="2.7"/><circle cx="690.0" cy="78.0" r="2.7"/><circle cx="690.0" cy="90.0" r="2.7"/><circle cx="690.0" cy="102.0" r="2.7"/><circle cx="690.0" cy="114.0" r="2.7"/><circle cx="690.0" cy="126.0" r="2.7"/><circle cx="690.0" cy="138.0" r="2.7"/><circle cx="690.0" cy="150.0" r="2.7"/><circle cx="690.0" cy="162.0" r="2.7"/><circle cx="690.0" cy="198.0" r="2.7"/><circle cx="690.0" cy="210.0" r="2.7"/><circle cx="690.0" cy="222.0" r="2.7"/><circle cx="690.0" cy="234.0" r="2.7"/><circle cx="690.0" cy="246.0" r="2.7"/><circle cx="690.0" cy="258.0" r="2.7"/><circle cx="690.0" cy="270.0" r="2.7"/><circle cx="690.0" cy="282.0" r="2.7"/><circle cx="690.0" cy="294.0" r="2.7"/><circle cx="690.0" cy="306.0" r="2.7"/><circle cx="690.0" cy="318.0" r="2.7"/><circle cx="690.0" cy="330.0" r="2.7"/><circle cx="690.0" cy="342.0" r="2.7"/><circle cx="690.0" cy="354.0" r="2.7"/><circle cx="690.0" cy="366.0" r="2.7"/><circle cx="690.0" cy="378.0" r="2.7"/><circle cx="690.0" cy="390.0" r="2.7"/><circle cx="690.0" cy="402.0" r="2.7"/><circle cx="702.0" cy="102.0" r="2.7"/><circle cx="702.0" cy="114.0" r="2.7"/><circle cx="702.0" cy="126.0" r="2.7"/><circle cx="702.0" cy="138.0" r="2.7"/><circle cx="702.0" cy="210.0" r="2.7"/><circle cx="702.0" cy="222.0" r="2.7"/><circle cx="702.0" cy="234.0" r="2.7"/><circle cx="702.0" cy="246.0" r="2.7"/><circle cx="702.0" cy="258.0" r="2.7"/><circle cx="702.0" cy="270.0" r="2.7"/><circle cx="702.0" cy="282.0" r="2.7"/><circle cx="702.0" cy="294.0" r="2.7"/><circle cx="702.0" cy="306.0" r="2.7"/><circle cx="702.0" cy="318.0" r="2.7"/><circle cx="702.0" cy="330.0" r="2.7"/><circle cx="702.0" cy="342.0" r="2.7"/><circle cx="702.0" cy="354.0" r="2.7"/><circle cx="702.0" cy="366.0" r="2.7"/><circle cx="702.0" cy="378.0" r="2.7"/><circle cx="714.0" cy="102.0" r="2.7"/><circle cx="714.0" cy="114.0" r="2.7"/><circle cx="714.0" cy="126.0" r="2.7"/><circle cx="714.0" cy="138.0" r="2.7"/><circle cx="714.0" cy="222.0" r="2.7"/><circle cx="714.0" cy="234.0" r="2.7"/><circle cx="714.0" cy="246.0" r="2.7"/><circle cx="714.0" cy="258.0" r="2.7"/><circle cx="714.0" cy="270.0" r="2.7"/><circle cx="714.0" cy="282.0" r="2.7"/><circle cx="714.0" cy="294.0" r="2.7"/><circle cx="714.0" cy="306.0" r="2.7"/><circle cx="714.0" cy="318.0" r="2.7"/><circle cx="714.0" cy="330.0" r="2.7"/><circle cx="714.0" cy="342.0" r="2.7"/><circle cx="714.0" cy="354.0" r="2.7"/><circle cx="726.0" cy="102.0" r="2.7"/><circle cx="726.0" cy="114.0" r="2.7"/><circle cx="726.0" cy="126.0" r="2.7"/><circle cx="726.0" cy="138.0" r="2.7"/><circle cx="726.0" cy="258.0" r="2.7"/><circle cx="726.0" cy="270.0" r="2.7"/><circle cx="726.0" cy="282.0" r="2.7"/><circle cx="726.0" cy="294.0" r="2.7"/><circle cx="726.0" cy="306.0" r="2.7"/><circle cx="726.0" cy="318.0" r="2.7"/><circle cx="726.0" cy="330.0" r="2.7"/><circle cx="726.0" cy="342.0" r="2.7"/><circle cx="738.0" cy="138.0" r="2.7"/><circle cx="738.0" cy="258.0" r="2.7"/><circle cx="738.0" cy="270.0" r="2.7"/><circle cx="738.0" cy="282.0" r="2.7"/><circle cx="738.0" cy="294.0" r="2.7"/><circle cx="738.0" cy="306.0" r="2.7"/><circle cx="738.0" cy="318.0" r="2.7"/><circle cx="750.0" cy="138.0" r="2.7"/><circle cx="750.0" cy="150.0" r="2.7"/><circle cx="750.0" cy="162.0" r="2.7"/><circle cx="750.0" cy="270.0" r="2.7"/><circle cx="750.0" cy="282.0" r="2.7"/><circle cx="750.0" cy="294.0" r="2.7"/><circle cx="750.0" cy="354.0" r="2.7"/><circle cx="750.0" cy="366.0" r="2.7"/><circle cx="762.0" cy="138.0" r="2.7"/><circle cx="762.0" cy="150.0" r="2.7"/><circle cx="762.0" cy="162.0" r="2.7"/><circle cx="762.0" cy="174.0" r="2.7"/><circle cx="762.0" cy="186.0" r="2.7"/><circle cx="762.0" cy="270.0" r="2.7"/><circle cx="762.0" cy="366.0" r="2.7"/><circle cx="774.0" cy="138.0" r="2.7"/><circle cx="774.0" cy="150.0" r="2.7"/><circle cx="774.0" cy="162.0" r="2.7"/><circle cx="774.0" cy="174.0" r="2.7"/><circle cx="774.0" cy="186.0" r="2.7"/><circle cx="774.0" cy="198.0" r="2.7"/><circle cx="786.0" cy="138.0" r="2.7"/><circle cx="786.0" cy="150.0" r="2.7"/><circle cx="786.0" cy="162.0" r="2.7"/><circle cx="786.0" cy="174.0" r="2.7"/><circle cx="786.0" cy="186.0" r="2.7"/><circle cx="786.0" cy="198.0" r="2.7"/><circle cx="798.0" cy="114.0" r="2.7"/><circle cx="798.0" cy="126.0" r="2.7"/><circle cx="798.0" cy="138.0" r="2.7"/><circle cx="798.0" cy="150.0" r="2.7"/><circle cx="798.0" cy="162.0" r="2.7"/><circle cx="798.0" cy="174.0" r="2.7"/><circle cx="798.0" cy="186.0" r="2.7"/><circle cx="798.0" cy="198.0" r="2.7"/><circle cx="798.0" cy="210.0" r="2.7"/><circle cx="810.0" cy="102.0" r="2.7"/><circle cx="810.0" cy="114.0" r="2.7"/><circle cx="810.0" cy="126.0" r="2.7"/><circle cx="810.0" cy="138.0" r="2.7"/><circle cx="810.0" cy="150.0" r="2.7"/><circle cx="810.0" cy="162.0" r="2.7"/><circle cx="810.0" cy="174.0" r="2.7"/><circle cx="810.0" cy="186.0" r="2.7"/><circle cx="810.0" cy="198.0" r="2.7"/><circle cx="810.0" cy="210.0" r="2.7"/><circle cx="822.0" cy="102.0" r="2.7"/><circle cx="822.0" cy="114.0" r="2.7"/><circle cx="822.0" cy="126.0" r="2.7"/><circle cx="822.0" cy="138.0" r="2.7"/><circle cx="822.0" cy="150.0" r="2.7"/><circle cx="822.0" cy="162.0" r="2.7"/><circle cx="822.0" cy="174.0" r="2.7"/><circle cx="822.0" cy="186.0" r="2.7"/><circle cx="822.0" cy="198.0" r="2.7"/><circle cx="822.0" cy="210.0" r="2.7"/><circle cx="834.0" cy="90.0" r="2.7"/><circle cx="834.0" cy="102.0" r="2.7"/><circle cx="834.0" cy="114.0" r="2.7"/><circle cx="834.0" cy="126.0" r="2.7"/><circle cx="834.0" cy="138.0" r="2.7"/><circle cx="834.0" cy="150.0" r="2.7"/><circle cx="834.0" cy="162.0" r="2.7"/><circle cx="834.0" cy="174.0" r="2.7"/><circle cx="834.0" cy="186.0" r="2.7"/><circle cx="834.0" cy="198.0" r="2.7"/><circle cx="834.0" cy="210.0" r="2.7"/><circle cx="846.0" cy="90.0" r="2.7"/><circle cx="846.0" cy="102.0" r="2.7"/><circle cx="846.0" cy="114.0" r="2.7"/><circle cx="846.0" cy="126.0" r="2.7"/><circle cx="846.0" cy="138.0" r="2.7"/><circle cx="846.0" cy="150.0" r="2.7"/><circle cx="846.0" cy="162.0" r="2.7"/><circle cx="846.0" cy="174.0" r="2.7"/><circle cx="846.0" cy="186.0" r="2.7"/><circle cx="846.0" cy="198.0" r="2.7"/><circle cx="846.0" cy="210.0" r="2.7"/><circle cx="846.0" cy="222.0" r="2.7"/><circle cx="858.0" cy="78.0" r="2.7"/><circle cx="858.0" cy="90.0" r="2.7"/><circle cx="858.0" cy="102.0" r="2.7"/><circle cx="858.0" cy="114.0" r="2.7"/><circle cx="858.0" cy="126.0" r="2.7"/><circle cx="858.0" cy="138.0" r="2.7"/><circle cx="858.0" cy="150.0" r="2.7"/><circle cx="858.0" cy="162.0" r="2.7"/><circle cx="858.0" cy="174.0" r="2.7"/><circle cx="858.0" cy="186.0" r="2.7"/><circle cx="858.0" cy="198.0" r="2.7"/><circle cx="858.0" cy="210.0" r="2.7"/><circle cx="858.0" cy="222.0" r="2.7"/><circle cx="870.0" cy="78.0" r="2.7"/><circle cx="870.0" cy="90.0" r="2.7"/><circle cx="870.0" cy="102.0" r="2.7"/><circle cx="870.0" cy="114.0" r="2.7"/><circle cx="870.0" cy="126.0" r="2.7"/><circle cx="870.0" cy="138.0" r="2.7"/><circle cx="870.0" cy="150.0" r="2.7"/><circle cx="870.0" cy="162.0" r="2.7"/><circle cx="870.0" cy="174.0" r="2.7"/><circle cx="870.0" cy="186.0" r="2.7"/><circle cx="870.0" cy="198.0" r="2.7"/><circle cx="870.0" cy="210.0" r="2.7"/><circle cx="870.0" cy="222.0" r="2.7"/><circle cx="870.0" cy="234.0" r="2.7"/><circle cx="882.0" cy="66.0" r="2.7"/><circle cx="882.0" cy="78.0" r="2.7"/><circle cx="882.0" cy="90.0" r="2.7"/><circle cx="882.0" cy="102.0" r="2.7"/><circle cx="882.0" cy="114.0" r="2.7"/><circle cx="882.0" cy="126.0" r="2.7"/><circle cx="882.0" cy="138.0" r="2.7"/><circle cx="882.0" cy="150.0" r="2.7"/><circle cx="882.0" cy="162.0" r="2.7"/><circle cx="882.0" cy="174.0" r="2.7"/><circle cx="882.0" cy="186.0" r="2.7"/><circle cx="882.0" cy="198.0" r="2.7"/><circle cx="882.0" cy="210.0" r="2.7"/><circle cx="882.0" cy="222.0" r="2.7"/><circle cx="894.0" cy="66.0" r="2.7"/><circle cx="894.0" cy="78.0" r="2.7"/><circle cx="894.0" cy="90.0" r="2.7"/><circle cx="894.0" cy="102.0" r="2.7"/><circle cx="894.0" cy="114.0" r="2.7"/><circle cx="894.0" cy="126.0" r="2.7"/><circle cx="894.0" cy="138.0" r="2.7"/><circle cx="894.0" cy="150.0" r="2.7"/><circle cx="894.0" cy="162.0" r="2.7"/><circle cx="894.0" cy="174.0" r="2.7"/><circle cx="894.0" cy="186.0" r="2.7"/><circle cx="894.0" cy="198.0" r="2.7"/><circle cx="894.0" cy="210.0" r="2.7"/><circle cx="906.0" cy="66.0" r="2.7"/><circle cx="906.0" cy="78.0" r="2.7"/><circle cx="906.0" cy="90.0" r="2.7"/><circle cx="906.0" cy="102.0" r="2.7"/><circle cx="906.0" cy="114.0" r="2.7"/><circle cx="906.0" cy="126.0" r="2.7"/><circle cx="906.0" cy="138.0" r="2.7"/><circle cx="906.0" cy="150.0" r="2.7"/><circle cx="906.0" cy="162.0" r="2.7"/><circle cx="906.0" cy="174.0" r="2.7"/><circle cx="906.0" cy="186.0" r="2.7"/><circle cx="906.0" cy="198.0" r="2.7"/><circle cx="906.0" cy="210.0" r="2.7"/><circle cx="906.0" cy="222.0" r="2.7"/><circle cx="918.0" cy="66.0" r="2.7"/><circle cx="918.0" cy="78.0" r="2.7"/><circle cx="918.0" cy="90.0" r="2.7"/><circle cx="918.0" cy="102.0" r="2.7"/><circle cx="918.0" cy="114.0" r="2.7"/><circle cx="918.0" cy="126.0" r="2.7"/><circle cx="918.0" cy="138.0" r="2.7"/><circle cx="918.0" cy="150.0" r="2.7"/><circle cx="918.0" cy="162.0" r="2.7"/><circle cx="918.0" cy="174.0" r="2.7"/><circle cx="918.0" cy="186.0" r="2.7"/><circle cx="918.0" cy="198.0" r="2.7"/><circle cx="918.0" cy="210.0" r="2.7"/><circle cx="918.0" cy="222.0" r="2.7"/><circle cx="918.0" cy="234.0" r="2.7"/><circle cx="918.0" cy="294.0" r="2.7"/><circle cx="930.0" cy="66.0" r="2.7"/><circle cx="930.0" cy="78.0" r="2.7"/><circle cx="930.0" cy="90.0" r="2.7"/><circle cx="930.0" cy="102.0" r="2.7"/><circle cx="930.0" cy="114.0" r="2.7"/><circle cx="930.0" cy="126.0" r="2.7"/><circle cx="930.0" cy="138.0" r="2.7"/><circle cx="930.0" cy="150.0" r="2.7"/><circle cx="930.0" cy="162.0" r="2.7"/><circle cx="930.0" cy="174.0" r="2.7"/><circle cx="930.0" cy="186.0" r="2.7"/><circle cx="930.0" cy="198.0" r="2.7"/><circle cx="930.0" cy="210.0" r="2.7"/><circle cx="930.0" cy="222.0" r="2.7"/><circle cx="930.0" cy="234.0" r="2.7"/><circle cx="930.0" cy="246.0" r="2.7"/><circle cx="930.0" cy="258.0" r="2.7"/><circle cx="930.0" cy="270.0" r="2.7"/><circle cx="930.0" cy="294.0" r="2.7"/><circle cx="930.0" cy="306.0" r="2.7"/><circle cx="930.0" cy="318.0" r="2.7"/><circle cx="942.0" cy="66.0" r="2.7"/><circle cx="942.0" cy="78.0" r="2.7"/><circle cx="942.0" cy="90.0" r="2.7"/><circle cx="942.0" cy="102.0" r="2.7"/><circle cx="942.0" cy="114.0" r="2.7"/><circle cx="942.0" cy="126.0" r="2.7"/><circle cx="942.0" cy="138.0" r="2.7"/><circle cx="942.0" cy="150.0" r="2.7"/><circle cx="942.0" cy="162.0" r="2.7"/><circle cx="942.0" cy="174.0" r="2.7"/><circle cx="942.0" cy="186.0" r="2.7"/><circle cx="942.0" cy="198.0" r="2.7"/><circle cx="942.0" cy="210.0" r="2.7"/><circle cx="942.0" cy="222.0" r="2.7"/><circle cx="942.0" cy="234.0" r="2.7"/><circle cx="942.0" cy="246.0" r="2.7"/><circle cx="942.0" cy="258.0" r="2.7"/><circle cx="942.0" cy="270.0" r="2.7"/><circle cx="942.0" cy="294.0" r="2.7"/><circle cx="942.0" cy="306.0" r="2.7"/><circle cx="942.0" cy="318.0" r="2.7"/><circle cx="954.0" cy="66.0" r="2.7"/><circle cx="954.0" cy="78.0" r="2.7"/><circle cx="954.0" cy="90.0" r="2.7"/><circle cx="954.0" cy="102.0" r="2.7"/><circle cx="954.0" cy="114.0" r="2.7"/><circle cx="954.0" cy="126.0" r="2.7"/><circle cx="954.0" cy="138.0" r="2.7"/><circle cx="954.0" cy="150.0" r="2.7"/><circle cx="954.0" cy="162.0" r="2.7"/><circle cx="954.0" cy="174.0" r="2.7"/><circle cx="954.0" cy="186.0" r="2.7"/><circle cx="954.0" cy="198.0" r="2.7"/><circle cx="954.0" cy="210.0" r="2.7"/><circle cx="954.0" cy="222.0" r="2.7"/><circle cx="954.0" cy="234.0" r="2.7"/><circle cx="954.0" cy="246.0" r="2.7"/><circle cx="954.0" cy="258.0" r="2.7"/><circle cx="954.0" cy="294.0" r="2.7"/><circle cx="954.0" cy="306.0" r="2.7"/><circle cx="954.0" cy="318.0" r="2.7"/><circle cx="966.0" cy="66.0" r="2.7"/><circle cx="966.0" cy="78.0" r="2.7"/><circle cx="966.0" cy="90.0" r="2.7"/><circle cx="966.0" cy="102.0" r="2.7"/><circle cx="966.0" cy="114.0" r="2.7"/><circle cx="966.0" cy="126.0" r="2.7"/><circle cx="966.0" cy="138.0" r="2.7"/><circle cx="966.0" cy="150.0" r="2.7"/><circle cx="966.0" cy="162.0" r="2.7"/><circle cx="966.0" cy="174.0" r="2.7"/><circle cx="966.0" cy="186.0" r="2.7"/><circle cx="966.0" cy="198.0" r="2.7"/><circle cx="966.0" cy="210.0" r="2.7"/><circle cx="966.0" cy="222.0" r="2.7"/><circle cx="966.0" cy="234.0" r="2.7"/><circle cx="966.0" cy="246.0" r="2.7"/><circle cx="966.0" cy="294.0" r="2.7"/><circle cx="966.0" cy="306.0" r="2.7"/><circle cx="966.0" cy="318.0" r="2.7"/><circle cx="978.0" cy="66.0" r="2.7"/><circle cx="978.0" cy="78.0" r="2.7"/><circle cx="978.0" cy="90.0" r="2.7"/><circle cx="978.0" cy="102.0" r="2.7"/><circle cx="978.0" cy="114.0" r="2.7"/><circle cx="978.0" cy="126.0" r="2.7"/><circle cx="978.0" cy="138.0" r="2.7"/><circle cx="978.0" cy="150.0" r="2.7"/><circle cx="978.0" cy="162.0" r="2.7"/><circle cx="978.0" cy="174.0" r="2.7"/><circle cx="978.0" cy="186.0" r="2.7"/><circle cx="978.0" cy="198.0" r="2.7"/><circle cx="978.0" cy="210.0" r="2.7"/><circle cx="978.0" cy="222.0" r="2.7"/><circle cx="978.0" cy="234.0" r="2.7"/><circle cx="978.0" cy="294.0" r="2.7"/><circle cx="978.0" cy="306.0" r="2.7"/><circle cx="978.0" cy="318.0" r="2.7"/><circle cx="990.0" cy="66.0" r="2.7"/><circle cx="990.0" cy="78.0" r="2.7"/><circle cx="990.0" cy="90.0" r="2.7"/><circle cx="990.0" cy="102.0" r="2.7"/><circle cx="990.0" cy="114.0" r="2.7"/><circle cx="990.0" cy="126.0" r="2.7"/><circle cx="990.0" cy="138.0" r="2.7"/><circle cx="990.0" cy="150.0" r="2.7"/><circle cx="990.0" cy="162.0" r="2.7"/><circle cx="990.0" cy="174.0" r="2.7"/><circle cx="990.0" cy="186.0" r="2.7"/><circle cx="990.0" cy="198.0" r="2.7"/><circle cx="990.0" cy="210.0" r="2.7"/><circle cx="990.0" cy="222.0" r="2.7"/><circle cx="990.0" cy="234.0" r="2.7"/><circle cx="990.0" cy="294.0" r="2.7"/><circle cx="990.0" cy="306.0" r="2.7"/><circle cx="990.0" cy="318.0" r="2.7"/><circle cx="990.0" cy="378.0" r="2.7"/><circle cx="990.0" cy="390.0" r="2.7"/><circle cx="990.0" cy="402.0" r="2.7"/><circle cx="1002.0" cy="66.0" r="2.7"/><circle cx="1002.0" cy="78.0" r="2.7"/><circle cx="1002.0" cy="90.0" r="2.7"/><circle cx="1002.0" cy="102.0" r="2.7"/><circle cx="1002.0" cy="114.0" r="2.7"/><circle cx="1002.0" cy="126.0" r="2.7"/><circle cx="1002.0" cy="138.0" r="2.7"/><circle cx="1002.0" cy="150.0" r="2.7"/><circle cx="1002.0" cy="162.0" r="2.7"/><circle cx="1002.0" cy="174.0" r="2.7"/><circle cx="1002.0" cy="186.0" r="2.7"/><circle cx="1002.0" cy="198.0" r="2.7"/><circle cx="1002.0" cy="210.0" r="2.7"/><circle cx="1002.0" cy="222.0" r="2.7"/><circle cx="1002.0" cy="294.0" r="2.7"/><circle cx="1002.0" cy="306.0" r="2.7"/><circle cx="1002.0" cy="318.0" r="2.7"/><circle cx="1002.0" cy="366.0" r="2.7"/><circle cx="1002.0" cy="378.0" r="2.7"/><circle cx="1002.0" cy="390.0" r="2.7"/><circle cx="1002.0" cy="402.0" r="2.7"/><circle cx="1014.0" cy="66.0" r="2.7"/><circle cx="1014.0" cy="78.0" r="2.7"/><circle cx="1014.0" cy="90.0" r="2.7"/><circle cx="1014.0" cy="102.0" r="2.7"/><circle cx="1014.0" cy="114.0" r="2.7"/><circle cx="1014.0" cy="126.0" r="2.7"/><circle cx="1014.0" cy="138.0" r="2.7"/><circle cx="1014.0" cy="150.0" r="2.7"/><circle cx="1014.0" cy="162.0" r="2.7"/><circle cx="1014.0" cy="174.0" r="2.7"/><circle cx="1014.0" cy="186.0" r="2.7"/><circle cx="1014.0" cy="198.0" r="2.7"/><circle cx="1014.0" cy="294.0" r="2.7"/><circle cx="1014.0" cy="306.0" r="2.7"/><circle cx="1014.0" cy="318.0" r="2.7"/><circle cx="1014.0" cy="354.0" r="2.7"/><circle cx="1014.0" cy="366.0" r="2.7"/><circle cx="1014.0" cy="378.0" r="2.7"/><circle cx="1014.0" cy="390.0" r="2.7"/><circle cx="1014.0" cy="402.0" r="2.7"/><circle cx="1026.0" cy="66.0" r="2.7"/><circle cx="1026.0" cy="78.0" r="2.7"/><circle cx="1026.0" cy="90.0" r="2.7"/><circle cx="1026.0" cy="102.0" r="2.7"/><circle cx="1026.0" cy="114.0" r="2.7"/><circle cx="1026.0" cy="126.0" r="2.7"/><circle cx="1026.0" cy="138.0" r="2.7"/><circle cx="1026.0" cy="150.0" r="2.7"/><circle cx="1026.0" cy="162.0" r="2.7"/><circle cx="1026.0" cy="174.0" r="2.7"/><circle cx="1026.0" cy="186.0" r="2.7"/><circle cx="1026.0" cy="306.0" r="2.7"/><circle cx="1026.0" cy="318.0" r="2.7"/><circle cx="1026.0" cy="354.0" r="2.7"/><circle cx="1026.0" cy="366.0" r="2.7"/><circle cx="1026.0" cy="378.0" r="2.7"/><circle cx="1026.0" cy="390.0" r="2.7"/><circle cx="1026.0" cy="402.0" r="2.7"/><circle cx="1038.0" cy="66.0" r="2.7"/><circle cx="1038.0" cy="78.0" r="2.7"/><circle cx="1038.0" cy="90.0" r="2.7"/><circle cx="1038.0" cy="102.0" r="2.7"/><circle cx="1038.0" cy="114.0" r="2.7"/><circle cx="1038.0" cy="126.0" r="2.7"/><circle cx="1038.0" cy="138.0" r="2.7"/><circle cx="1038.0" cy="150.0" r="2.7"/><circle cx="1038.0" cy="162.0" r="2.7"/><circle cx="1038.0" cy="174.0" r="2.7"/><circle cx="1038.0" cy="186.0" r="2.7"/><circle cx="1038.0" cy="306.0" r="2.7"/><circle cx="1038.0" cy="318.0" r="2.7"/><circle cx="1038.0" cy="354.0" r="2.7"/><circle cx="1038.0" cy="366.0" r="2.7"/><circle cx="1038.0" cy="378.0" r="2.7"/><circle cx="1038.0" cy="390.0" r="2.7"/><circle cx="1038.0" cy="402.0" r="2.7"/><circle cx="1050.0" cy="78.0" r="2.7"/><circle cx="1050.0" cy="90.0" r="2.7"/><circle cx="1050.0" cy="102.0" r="2.7"/><circle cx="1050.0" cy="114.0" r="2.7"/><circle cx="1050.0" cy="126.0" r="2.7"/><circle cx="1050.0" cy="138.0" r="2.7"/><circle cx="1050.0" cy="150.0" r="2.7"/><circle cx="1050.0" cy="162.0" r="2.7"/><circle cx="1050.0" cy="174.0" r="2.7"/><circle cx="1050.0" cy="186.0" r="2.7"/><circle cx="1050.0" cy="306.0" r="2.7"/><circle cx="1050.0" cy="318.0" r="2.7"/><circle cx="1050.0" cy="342.0" r="2.7"/><circle cx="1050.0" cy="354.0" r="2.7"/><circle cx="1050.0" cy="366.0" r="2.7"/><circle cx="1050.0" cy="378.0" r="2.7"/><circle cx="1050.0" cy="390.0" r="2.7"/><circle cx="1050.0" cy="402.0" r="2.7"/><circle cx="1062.0" cy="78.0" r="2.7"/><circle cx="1062.0" cy="90.0" r="2.7"/><circle cx="1062.0" cy="102.0" r="2.7"/><circle cx="1062.0" cy="114.0" r="2.7"/><circle cx="1062.0" cy="126.0" r="2.7"/><circle cx="1062.0" cy="138.0" r="2.7"/><circle cx="1062.0" cy="150.0" r="2.7"/><circle cx="1062.0" cy="162.0" r="2.7"/><circle cx="1062.0" cy="174.0" r="2.7"/><circle cx="1062.0" cy="306.0" r="2.7"/><circle cx="1062.0" cy="318.0" r="2.7"/><circle cx="1062.0" cy="342.0" r="2.7"/><circle cx="1062.0" cy="354.0" r="2.7"/><circle cx="1062.0" cy="366.0" r="2.7"/><circle cx="1062.0" cy="378.0" r="2.7"/><circle cx="1062.0" cy="390.0" r="2.7"/><circle cx="1062.0" cy="402.0" r="2.7"/><circle cx="1062.0" cy="414.0" r="2.7"/><circle cx="1074.0" cy="78.0" r="2.7"/><circle cx="1074.0" cy="90.0" r="2.7"/><circle cx="1074.0" cy="102.0" r="2.7"/><circle cx="1074.0" cy="114.0" r="2.7"/><circle cx="1074.0" cy="126.0" r="2.7"/><circle cx="1074.0" cy="138.0" r="2.7"/><circle cx="1074.0" cy="150.0" r="2.7"/><circle cx="1074.0" cy="318.0" r="2.7"/><circle cx="1074.0" cy="342.0" r="2.7"/><circle cx="1074.0" cy="354.0" r="2.7"/><circle cx="1074.0" cy="366.0" r="2.7"/><circle cx="1074.0" cy="378.0" r="2.7"/><circle cx="1074.0" cy="390.0" r="2.7"/><circle cx="1074.0" cy="402.0" r="2.7"/><circle cx="1074.0" cy="414.0" r="2.7"/><circle cx="1086.0" cy="90.0" r="2.7"/><circle cx="1086.0" cy="102.0" r="2.7"/><circle cx="1086.0" cy="114.0" r="2.7"/><circle cx="1086.0" cy="126.0" r="2.7"/><circle cx="1086.0" cy="138.0" r="2.7"/><circle cx="1086.0" cy="318.0" r="2.7"/><circle cx="1086.0" cy="354.0" r="2.7"/><circle cx="1086.0" cy="366.0" r="2.7"/><circle cx="1086.0" cy="378.0" r="2.7"/><circle cx="1086.0" cy="390.0" r="2.7"/><circle cx="1086.0" cy="402.0" r="2.7"/><circle cx="1086.0" cy="414.0" r="2.7"/><circle cx="1086.0" cy="426.0" r="2.7"/><circle cx="1098.0" cy="102.0" r="2.7"/><circle cx="1098.0" cy="114.0" r="2.7"/><circle cx="1098.0" cy="126.0" r="2.7"/><circle cx="1098.0" cy="138.0" r="2.7"/><circle cx="1098.0" cy="378.0" r="2.7"/><circle cx="1098.0" cy="390.0" r="2.7"/><circle cx="1098.0" cy="402.0" r="2.7"/><circle cx="1110.0" cy="114.0" r="2.7"/><circle cx="1110.0" cy="126.0" r="2.7"/><circle cx="1158.0" cy="438.0" r="2.7"/><circle cx="1170.0" cy="438.0" r="2.7"/><circle cx="1170.0" cy="450.0" r="2.7"/><circle cx="1182.0" cy="450.0" r="2.7"/></g></svg>